<svg width="175" height="56" viewBox="0 0 175 56" fill="none" xmlns="http://www.w3.org/2000/svg">
<g clip-path="url(#clip0_1178_1927)">
<circle cx="22.5" cy="28.5" r="22.5" fill="white"/>
<path fill-rule="evenodd" clip-rule="evenodd" d="M32.473 8.32666C39.8965 12.003 45.0005 19.6547 45.0005 28.4999C45.0005 40.926 34.927 50.9999 22.5005 50.9999C19.0182 50.9999 15.7202 50.2081 12.7771 48.7956C14.7942 48.6698 16.8445 48.2017 18.1347 47.6556C15.5539 46.991 13.4022 45.8213 11.9375 43.8466C19.6515 48.937 24.9374 45.2645 29.9044 42.672C26.8112 42.6423 24.4079 41.496 21.9749 39.8372C25.2617 41.2005 28.2584 42.1888 31.9874 41.79C28.7391 41.0605 25.7166 39.9055 23.6136 37.016L15.7943 34.5201L23.7029 35.389C23.6512 34.8536 23.52 34.3182 23.3006 33.8009C22.8428 32.7204 22.07 31.8642 21.1206 31.2821L32.473 8.32666Z" fill="#DFBE00"/>
<path fill-rule="evenodd" clip-rule="evenodd" d="M22.5 6C24.8775 6 27.1681 6.36959 29.3188 7.05318L17.7626 30.4196C17.0171 30.4474 16.258 30.6103 15.5227 30.9213C13.7021 31.6927 12.4339 33.2008 11.9594 34.9039C10.4211 37.7631 8.88279 40.6223 7.34446 43.482C7.12066 43.8984 6.95147 44.285 6.83104 44.6444C2.61881 40.556 0 34.8342 0 28.5C0 16.0735 10.0735 6 22.5 6Z" fill="#42C652"/>
</g>
<path d="M74.6 23.76C74.3333 22.9867 73.9733 22.3067 73.52 21.72C73.0933 21.1067 72.5733 20.5867 71.96 20.16C71.3733 19.7333 70.7067 19.4133 69.96 19.2C69.24 18.96 68.44 18.84 67.56 18.84C65.9333 18.84 64.48 19.2267 63.2 20C61.9467 20.7733 60.96 21.84 60.24 23.2C59.5467 24.56 59.2 26.16 59.2 28C59.2 29.8933 59.5467 31.5333 60.24 32.92C60.96 34.3067 61.9733 35.3867 63.28 36.16C64.6133 36.9333 66.1733 37.32 67.96 37.32C69 37.32 69.96 37.12 70.84 36.72C71.72 36.32 72.4933 35.8 73.16 35.16C73.8533 34.52 74.4 33.8 74.8 33C75.2267 32.2 75.52 31.4133 75.68 30.64H66.56V26.2H81.36V42H76.4V34.92L76.8 34.72C76.7467 35.1733 76.5867 35.72 76.32 36.36C76.0533 37 75.6667 37.6667 75.16 38.36C74.6533 39.0267 74.0133 39.6667 73.24 40.28C72.4933 40.8667 71.6133 41.3467 70.6 41.72C69.5867 42.0933 68.44 42.28 67.16 42.28C65.2933 42.28 63.5333 41.9333 61.88 41.24C60.2267 40.5467 58.76 39.5733 57.48 38.32C56.2267 37.04 55.2267 35.5333 54.48 33.8C53.76 32.04 53.4 30.1067 53.4 28C53.4 25.8933 53.76 23.9733 54.48 22.24C55.2267 20.5067 56.24 19.0133 57.52 17.76C58.8267 16.48 60.3333 15.5067 62.04 14.84C63.7733 14.1467 65.64 13.8 67.64 13.8C70.6267 13.8 73.2267 14.48 75.44 15.84C77.6533 17.2 79.2267 19.1733 80.16 21.76L74.6 23.76ZM85.5413 36.04V12.4H91.1813V35.68C91.1813 36.2667 91.3546 36.7067 91.7013 37C92.0479 37.2933 92.4613 37.44 92.9413 37.44C93.2879 37.44 93.5813 37.3867 93.8213 37.28L94.8613 41.56C93.9279 42.04 92.8613 42.28 91.6613 42.28C90.6746 42.28 89.7013 42.08 88.7413 41.68C87.8079 41.2533 87.0346 40.5867 86.4213 39.68C85.8346 38.7467 85.5413 37.5333 85.5413 36.04ZM108.155 42.28C106.021 42.28 104.101 41.8133 102.395 40.88C100.715 39.9467 99.368 38.6267 98.3547 36.92C97.368 35.2133 96.8747 33.2 96.8747 30.88C96.8747 28.56 97.3814 26.56 98.3947 24.88C99.408 23.1733 100.781 21.8667 102.515 20.96C104.248 20.0267 106.181 19.56 108.315 19.56C110.448 19.56 112.368 20.0267 114.075 20.96C115.808 21.8667 117.181 23.1733 118.195 24.88C119.208 26.56 119.715 28.56 119.715 30.88C119.715 33.2 119.195 35.2133 118.155 36.92C117.141 38.6267 115.755 39.9467 113.995 40.88C112.261 41.8133 110.315 42.28 108.155 42.28ZM108.155 37.36C109.141 37.36 110.075 37.1333 110.955 36.68C111.835 36.2 112.555 35.48 113.115 34.52C113.675 33.5333 113.955 32.32 113.955 30.88C113.955 29.44 113.675 28.24 113.115 27.28C112.581 26.32 111.875 25.6133 110.995 25.16C110.141 24.68 109.221 24.44 108.235 24.44C107.248 24.44 106.328 24.68 105.475 25.16C104.648 25.6133 103.968 26.32 103.435 27.28C102.901 28.24 102.635 29.44 102.635 30.88C102.635 32.32 102.888 33.5333 103.395 34.52C103.901 35.48 104.568 36.2 105.395 36.68C106.248 37.1333 107.168 37.36 108.155 37.36ZM121.303 19.84H127.023L131.703 40.2H130.023L135.143 19.84H141.103L146.143 40.2H144.463L149.103 19.84H154.543L148.103 42H141.943L137.103 23.24H138.863L133.903 42H127.783L121.303 19.84ZM172.883 24.36L163.123 37.36H172.963V42H156.723V37.44L166.403 24.48H156.763V19.84H172.883V24.36Z" fill="black"/>
<defs>
<clipPath id="clip0_1178_1927">
<rect width="45" height="45" fill="white" transform="translate(0 6)"/>
</clipPath>
</defs>
</svg>
